<svg id="圖層_1" data-name="圖層 1" xmlns="http://www.w3.org/2000/svg" viewBox="0 0 109.53 90.01"><defs><style>.cls-1{font-size:16.57px;fill:#221714;stroke:#006636;font-family:NagomiGokubosoGothic-ExtraLight-83pv-RKSJ-H, Nagomi Gokuboso Gothic;}.cls-1,.cls-4{stroke-miterlimit:10;stroke-width:0.5px;}.cls-2{fill:#fff;}.cls-3,.cls-4{fill:#4d526e;}.cls-4{font-size:16.57px;stroke:#4d526e;font-family:NanumMyeongjo, Nanum Myeongjo;}</style></defs><text class="cls-1" transform="matrix(1, -0.01, 0.01, 1, 64.93, 60.6)"><tspan xml:space="preserve">      </tspan></text><path class="cls-2" d="M12,25.79C9.46,23.11,3,20,3.51,12.94a.2.2,0,0,1,.32-.14c.8.67,3.15,2.7,5.94,5.46,1.93,1.92,2.46,5.89,2.6,7.38A.2.2,0,0,1,12,25.79Z"/><path class="cls-3" d="M12.16,25.66c-3.38-3.41-8.08-5.79-8.47-11.17,0-.58-.17-1.35.38-1.24.32.06.88.76,1.12,1,1.16,1,2.3,2.09,3.42,3.16a9.86,9.86,0,0,1,2.88,4.53,25.28,25.28,0,0,1,.59,3.69c-.24-.05-.34.31-.1.36l.22.05a.21.21,0,0,0,.21-.09c.41-.7-.1-2.21-.26-2.94a10.85,10.85,0,0,0-1.77-4.3,32.34,32.34,0,0,0-4.2-4.07c-.61-.56-1.64-1.9-2.5-2a.2.2,0,0,0-.21.09c-.6.81-.08,2.82.18,3.73a10.91,10.91,0,0,0,2,3.75c1.79,2.26,4.26,3.74,6.27,5.76A.18.18,0,0,0,12.16,25.66Z"/><path class="cls-3" d="M52,22.73a.07.07,0,0,1-.08-.1,11,11,0,0,1,2.63-5c1.37-1.5,4.57-2.9,7-4.56a.07.07,0,0,1,.1.08A21.88,21.88,0,0,1,56.79,20,9.79,9.79,0,0,1,52,22.73Z"/><path class="cls-3" d="M52.14,22.6c-.2-.26.83-2.36.87-2.45a9.5,9.5,0,0,1,2.32-3,25.59,25.59,0,0,1,3.46-2.2,17.8,17.8,0,0,0,1.84-1.09c.34-.24.69-.76.69-.46,0,.56-.74,1.43-1,1.89a22.06,22.06,0,0,1-2.69,3.6A11.06,11.06,0,0,1,52,22.55c-.23.05-.13.41.1.36,2.73-.54,4.95-2.67,6.65-4.73a22.33,22.33,0,0,0,2.35-3.45c.22-.41.86-1.24.74-1.74a.19.19,0,0,0-.18-.14c-.43,0-.82.46-1.18.68-.86.54-1.74,1-2.62,1.54a14,14,0,0,0-3.62,2.66c-.57.66-3.16,4.11-2.32,5.13C52,23.05,52.3,22.78,52.14,22.6Z"/><path class="cls-3" d="M33.57,89.79C30.92,81.88,30.3,73,30.46,64.73A95.73,95.73,0,0,1,49.77,9.3c.46-.61,2-1.89,1.91-2.77,0,.17-.21.54-.28.7-.33.86-.66,1.71-1,2.57-1.06,2.85-1.88,5.91-3.5,8.5a13.21,13.21,0,0,1-4.11,4,8.51,8.51,0,0,0-2.67,2.43c-.14.2.19.39.32.18.88-1.34,2.23-2,3.5-2.94a12.51,12.51,0,0,0,3.54-4,52,52,0,0,0,3.2-7.93c.33-.89.67-1.79,1-2.67.12-.3.49-.84.37-1.16a.2.2,0,0,0-.24-.13c-.87.17-2.74,3.4-3.23,4.08-1.48,2-2.89,4.12-4.21,6.25a97.3,97.3,0,0,0-6.51,12.38,93.8,93.8,0,0,0-6.58,22.31,92.49,92.49,0,0,0,.4,32.64,48.74,48.74,0,0,0,1.5,6.06c.07.22.43.13.36-.1Z"/><path class="cls-2" d="M38.07,28.39c2.42-5.48,2.19-13.9,1.27-16.69a.09.09,0,0,0-.17,0,17.74,17.74,0,0,0-1.1,6.68c.26,3.17,1.58,4.11,1.21,6.19"/><path class="cls-3" d="M38.24,28.48c2-4.87,2.87-11.68,1.28-16.83a.19.19,0,0,0-.18-.13h-.17a.18.18,0,0,0-.18.14,17.07,17.07,0,0,0-1.13,6.43c.11,2.2,1.51,4.31,1.23,6.49,0,.24.34.24.37,0,.3-2.3-1.18-4.45-1.24-6.78a15.82,15.82,0,0,1,.62-4.38c.19-.74.32-2.11.56-.69a28.6,28.6,0,0,1-1.49,15.57c-.09.22.23.41.33.19Z"/><path class="cls-2" d="M32.66,44.27c2.23-8.7,4.26-29.79-.92-43.92a.29.29,0,0,0-.56.08c-.13,2.06-.52,6.64-1.62,14.46C28,26.15,34.29,33.07,34.19,35.71"/><path class="cls-3" d="M32.84,44.32A83.49,83.49,0,0,0,35,28.74a88,88,0,0,0-.91-20.06c-.28-1.63-.63-3.25-1.06-4.84C32.8,3,32.55.79,31.87.22c-1.05-.9-.95,1.25-1,1.79-.22,2.64-.51,5.27-.84,7.9-.48,3.86-1.2,7.65-.75,11.54a29.81,29.81,0,0,0,2.35,8.33C32.4,31.55,34,33.73,34,35.71c0,.24.38.24.37,0a8.3,8.3,0,0,0-1.12-3.3,48.09,48.09,0,0,1-2.64-6.5c-1.93-6.44-.54-12.73.19-19.24.12-1.12.24-2.25.34-3.37.05-.5-.09-2.08.2-2.45s.6.64.73,1c.22.68.42,1.37.6,2.06.38,1.41.7,2.85,1,4.29a85.34,85.34,0,0,1,1.06,19.16,84.37,84.37,0,0,1-2.21,16.83c-.06.23.31.33.36.1Z"/><path class="cls-2" d="M31.34,51c1-8.61-3.66-23.19-13-31.65,0,0-.07,0-.05,0,.83,1,3.28,4.43,4.75,11,1.78,7.94,6.68,8.11,8,13.7"/><path class="cls-3" d="M31.53,51c.59-5.46-.75-11.12-2.72-16.18a41.47,41.47,0,0,0-10.38-15.6.2.2,0,0,0-.27,0l0,0a.19.19,0,0,0,0,.26,20.21,20.21,0,0,1,2.69,4.63c1.28,2.93,1.67,6.11,2.88,9,1.7,4.15,6,6.52,7.17,10.9a.19.19,0,0,0,.36-.1c-.89-3.33-3.42-5.16-5.4-7.8-2.87-3.81-3.05-8.85-5.08-13.09a11.63,11.63,0,0,0-2.12-3.55c-.41-.35.05.35.14.49a10.41,10.41,0,0,0,1.15,1.15,36.55,36.55,0,0,1,2.63,3.08,44.63,44.63,0,0,1,6.79,13.12A32.87,32.87,0,0,1,31.15,51c0,.24.35.24.38,0Z"/><path class="cls-3" d="M30.53,62.36c-.36-7.22-5-14.14-9.51-19.49a58.38,58.38,0,0,0-9.83-9.28,48.59,48.59,0,0,0-5.95-3.78C4.14,29.22,3,28.69,1.87,28.2,1.4,28,.62,27.46.14,27.64a.19.19,0,0,0-.13.23c.13.59,1.28,1.13,1.72,1.52a33.63,33.63,0,0,1,3.54,3.72c2.16,2.62,3.89,5,6.62,7.09s5.72,3.89,8.54,5.9,5.55,4.1,7,7.16c.11.21.43,0,.33-.19-2.17-4.45-7-7.24-11-9.89a56.65,56.65,0,0,1-7-5.19c-2.19-2-3.71-4.66-5.74-6.84a27.32,27.32,0,0,0-2.58-2.47c-.23-.19-.5-.36-.71-.57S.4,28.05.61,28a8.18,8.18,0,0,1,1.55.72,44.58,44.58,0,0,1,8,4.53A57.26,57.26,0,0,1,23.71,47c3.14,4.47,6.17,9.81,6.45,15.39,0,.24.38.25.37,0Z"/><path class="cls-3" d="M28.79,55.76C26.52,49.62,24.72,39.19,24.57,38a0,0,0,0,1,.06,0,8,8,0,0,1,2.53,6.49,26.35,26.35,0,0,0,.18,6.62"/><path class="cls-3" d="M29,55.71a77.89,77.89,0,0,1-2.64-9.48c-.34-1.54-.66-3.09-.95-4.64a22.2,22.2,0,0,0-.53-3,2.25,2.25,0,0,1-.06-.36c-.06-.4-.08,0-.21-.06a3.57,3.57,0,0,1,.76.84A7.83,7.83,0,0,1,27,44.18a31.94,31.94,0,0,0,.16,7c.05.23.41.13.37-.1-.54-2.67.07-5.37-.19-8a8.56,8.56,0,0,0-2.57-5.15.17.17,0,0,0-.22,0l-.07,0c-.08,0-.09.13-.08.21A87,87,0,0,0,28.6,55.81c.09.22.45.13.37-.1Z"/><path class="cls-2" d="M30.25,66.17c-.09-5.48-9.72-13.25-11.93-15.11,0,0,0,0,0,0a59,59,0,0,1,4.92,6.75c2.15,3.56,5.36,3.81,6.54,6.09"/><path class="cls-3" d="M30.44,66.17c-.17-3.3-2.62-6.19-4.74-8.53a74.34,74.34,0,0,0-7.25-6.72.21.21,0,0,0-.27,0l0,0a.2.2,0,0,0,0,.27c2.06,2.43,3.62,5.19,5.57,7.68C25.35,61,28.29,61.77,29.6,64c.12.2.45,0,.32-.19a7.11,7.11,0,0,0-2.43-2.29A14,14,0,0,1,23,57.17c-1-1.58-2.12-3.12-3.28-4.6-.27-.33-.75-1.19-1.14-1.4-.6-.33.28.62.43.75a66,66,0,0,1,6.06,5.64c2.15,2.31,4.79,5.28,5,8.61,0,.24.38.24.37,0Z"/><path class="cls-2" d="M30.78,76.43C30.37,71.2,23.85,63,19.52,60.75a.05.05,0,0,0-.06.08A26.51,26.51,0,0,1,23,66.75c2.33,4.79,6.46,5.58,7.09,6.83"/><path class="cls-3" d="M31,76.43c-.37-3.58-2.5-6.92-4.67-9.7a29.5,29.5,0,0,0-4.05-4.31c-.57-.48-2.08-2-2.85-1.84a.18.18,0,0,0-.13.18c0,.55,1,1.4,1.26,1.86,1.13,1.77,1.89,3.74,3,5.5a12.44,12.44,0,0,0,3.2,3.31c.95.67,2.55,1.23,3.17,2.24.13.2.45,0,.33-.19a4.7,4.7,0,0,0-1.63-1.3A16.22,16.22,0,0,1,25,69.35c-2.14-2.4-3.08-5.65-5-8.22-.41-.54-.15-.11.26.23.62.52,1.32.94,1.94,1.48a28.47,28.47,0,0,1,3.55,3.73c2.24,2.79,4.52,6.22,4.89,9.86,0,.24.4.24.38,0Z"/><path class="cls-3" d="M28.35,54.55C24,44.51,13,32.4.34,27.72a.09.09,0,0,0-.08.16,31.89,31.89,0,0,1,7.22,7.71c4.33,6.15,17.12,10.82,20.2,17.51Z"/><path class="cls-3" d="M28.52,54.46a52.82,52.82,0,0,0-11.81-16.3,54.65,54.65,0,0,0-8.19-6.5,45.79,45.79,0,0,0-4.88-2.74C3,28.61.88,27.31.18,27.58a.2.2,0,0,0-.13.23c.14.62,1.54,1.36,2,1.78A34.17,34.17,0,0,1,6.1,34a33.17,33.17,0,0,0,7.22,7.12c3.14,2.23,6.47,4.2,9.47,6.62a18.37,18.37,0,0,1,5.4,6.87c.1.22.43,0,.33-.19a21,21,0,0,0-7.25-8.3c-4.1-3-8.83-5.43-12.36-9.14-1.87-2-3.27-4.33-5.17-6.3-.67-.7-1.37-1.37-2.1-2L.9,28.13c-.7-.54.06,0,.47.19A56.24,56.24,0,0,1,17.08,39.05a51.93,51.93,0,0,1,11.11,15.6C28.29,54.87,28.61,54.68,28.52,54.46Z"/><path class="cls-2" d="M30.86,55.21C31.86,47,42.11,32.84,49,27.26a.16.16,0,0,1,.24.21A85.94,85.94,0,0,0,43.9,38.14C41.17,44.71,33.63,48,32.36,50.59"/><path class="cls-3" d="M31,55.26c.54-3.94,2.43-7.66,4.41-11.06A73.72,73.72,0,0,1,43.53,33a52.54,52.54,0,0,1,4.07-4.24c.28-.26.7-.83,1.07-.95s.18-.2,0,.21a20.62,20.62,0,0,1-1.27,2.3c-2.31,4.3-3.7,9.23-7.12,12.82a49.26,49.26,0,0,1-5.08,4.38,10.89,10.89,0,0,0-3,3c-.12.21.21.4.32.19.91-1.68,2.86-2.84,4.31-4a28.68,28.68,0,0,0,5.56-5.5c1.91-2.67,2.91-5.94,4.38-8.85.58-1.15,1.19-2.28,1.82-3.41.28-.5.87-1.11.78-1.71a.2.2,0,0,0-.18-.14c-.73,0-1.53,1.06-2,1.52-1.07,1-2.09,2.06-3.08,3.15a77.7,77.7,0,0,0-5.92,7.5c-3.25,4.68-6.71,10.15-7.49,15.92,0,.23.33.33.36.09Z"/><path class="cls-3" d="M30.56,69.78a25.7,25.7,0,0,1,1.88-7.41,43.33,43.33,0,0,1,15.63-19.7.21.21,0,0,1,.31.24A33.41,33.41,0,0,1,42.3,53.75c-4.31,4.83-7,5.07-9.17,8.23A17.08,17.08,0,0,0,30.56,69.78Z"/><path class="cls-3" d="M30.74,69.78c.5-6.08,3.65-12.08,7.17-17a42.17,42.17,0,0,1,6.35-7c.76-.67,1.55-1.31,2.37-1.91.44-.33,1.27-1.16,1.41-.61s-1,2.59-1.3,3.16a29.62,29.62,0,0,1-5.53,8.19,54.26,54.26,0,0,1-5.72,4.65,14.15,14.15,0,0,0-5.12,10.47c0,.24.36.24.37,0a15.14,15.14,0,0,1,2.79-8c1.63-2.16,4.14-3.43,6.17-5.17a28.65,28.65,0,0,0,6.44-8.08,38.87,38.87,0,0,0,1.73-3.7c.25-.61.83-1.52.62-2.18a.17.17,0,0,0-.18-.13c-.83,0-1.78,1-2.41,1.5a39.13,39.13,0,0,0-3.69,3.23,43.07,43.07,0,0,0-5.74,7c-3,4.57-5.65,10-6.1,15.51C30.35,70,30.72,70,30.74,69.78Z"/><path class="cls-3" d="M31.31,80.5C30.9,75,34.85,64.94,35.55,63.2c0,0,.06,0,.06,0a14.57,14.57,0,0,0,.72,5.54c1.11,4-4.25,5.32-5,11.75"/><path class="cls-3" d="M31.5,80.5c-.2-3.53.81-7.11,1.83-10.46.46-1.5,1-3,1.51-4.46.18-.51.43-1,.58-1.55a2.92,2.92,0,0,0,.19-.49c0-.29-.17-.2-.22.05-.3,1.36.25,3.23.57,4.52a4.71,4.71,0,0,1-.74,4.38c-1.83,2.6-3.62,4.68-4.09,8,0,.24.33.34.36.1A12.33,12.33,0,0,1,33.75,75a24.35,24.35,0,0,0,2.47-3.42,4.36,4.36,0,0,0,.29-2.89,18.21,18.21,0,0,1-.71-5.49.21.21,0,0,0-.14-.18H35.6a.19.19,0,0,0-.23.13c-2.14,5.33-4.57,11.52-4.24,17.35,0,.24.38.24.37,0Z"/><path class="cls-2" d="M12.71,53.46c0,.06-.05.13-.11.09a16.29,16.29,0,0,1-6.53-6.17,13.65,13.65,0,0,0-3.73-4.61.08.08,0,0,1,.08-.14C4.65,43.47,10.94,46.43,12.71,53.46Z"/><path class="cls-3" d="M12.53,53.41c.05-.16-1.74-1.18-1.92-1.31A16.12,16.12,0,0,1,7.2,48.76c-.15-.2-4.18-6.46-4.6-5.94.27-.34,4.68,2.77,5,3a14.93,14.93,0,0,1,4.92,7.64.19.19,0,0,0,.37-.09A15.45,15.45,0,0,0,7.38,45.2a18.91,18.91,0,0,0-3.13-2c-.43-.21-1.49-.93-2-.75a.2.2,0,0,0-.13.24c.14.61,1.38,1.34,1.81,1.85,1.34,1.59,2.16,3.53,3.5,5.12a17.27,17.27,0,0,0,3.3,3c.43.3,1.37,1.14,1.94,1.07a.2.2,0,0,0,.18-.14l0-.09C13,53.27,12.61,53.18,12.53,53.41Z"/><text class="cls-4" transform="translate(56.65 50.56)">Parfum</text></svg>