<svg id="圖層_1" data-name="圖層 1" xmlns="http://www.w3.org/2000/svg" viewBox="0 0 109.53 90.01"><defs><style>.cls-1{font-size:16.57px;fill:#221714;font-family:NagomiGokubosoGothic-ExtraLight-83pv-RKSJ-H, Nagomi Gokuboso Gothic;}.cls-1,.cls-4{stroke:#1d1d1b;stroke-miterlimit:10;stroke-width:0.5px;}.cls-2{fill:#fff;}.cls-3,.cls-4{fill:#1d1d1b;}.cls-4{font-size:16.57px;font-family:NanumMyeongjo, Nanum Myeongjo;}</style></defs><text class="cls-1" transform="matrix(1, -0.01, 0.01, 1, 64.93, 60.6)"><tspan xml:space="preserve">      </tspan></text><path class="cls-2" d="M12,25.79C9.46,23.11,3,20,3.51,12.94a.2.2,0,0,1,.32-.14c.8.67,3.15,2.7,5.94,5.46,1.93,1.92,2.46,5.89,2.6,7.38A.2.2,0,0,1,12,25.79Z"/><path class="cls-3" d="M12.16,25.66C11,24.48,9.64,23.53,8.4,22.45a15.13,15.13,0,0,1-3.76-4.51,9.26,9.26,0,0,1-.93-3.18c0-.27,0-.55,0-.82s-.08-.8,0-.92.22.11.31.19l.46.4c.87.75,1.71,1.51,2.55,2.29l1.63,1.54A12.66,12.66,0,0,1,10.14,19a10.11,10.11,0,0,1,1.53,3.6c.14.55.25,1.11.34,1.67,0,.27.07.53.11.8a2.79,2.79,0,0,1,0,.58c-.2-.13-.39.19-.19.32.42.26.64-.14.6-.51s-.1-.9-.17-1.34a16,16,0,0,0-1-3.59,8.1,8.1,0,0,0-.86-1.62A12,12,0,0,0,9,17.24c-1.12-1.08-2.25-2.14-3.41-3.17l-1.15-1c-.21-.18-.53-.58-.85-.47s-.3,1.12-.29,1.47a9.35,9.35,0,0,0,.23,1.83A11.77,11.77,0,0,0,7,21.62c1.55,1.54,3.42,2.73,5,4.3C12.06,26.1,12.33,25.83,12.16,25.66Z"/><path class="cls-3" d="M52,22.73a.07.07,0,0,1-.08-.1,11,11,0,0,1,2.63-5c1.37-1.5,4.57-2.9,7-4.56a.07.07,0,0,1,.1.08A21.88,21.88,0,0,1,56.79,20,9.79,9.79,0,0,1,52,22.73Z"/><path class="cls-3" d="M52.06,22.55c.16.06,0,.11.11,0a.8.8,0,0,0,0-.21l.12-.43a9.44,9.44,0,0,1,.47-1.29,9.55,9.55,0,0,1,2.24-3.2,17.32,17.32,0,0,1,3-2l1.77-1,.87-.53c.25-.16.63-.53.92-.58l-.19-.05c-.07-.06,0-.11-.05,0a1.36,1.36,0,0,0-.1.21c-.07.15-.14.3-.22.45-.22.45-.46.88-.72,1.31a22.86,22.86,0,0,1-2.51,3.43c-1.54,1.73-3.53,3.52-5.9,3.95-.23,0-.13.4.1.36a9.55,9.55,0,0,0,4.46-2.43A21.59,21.59,0,0,0,61,14.79c.18-.31.34-.63.5-.95a2.69,2.69,0,0,0,.3-.67c0-.25-.15-.37-.38-.29a4.6,4.6,0,0,0-.77.5l-.94.58c-2,1.19-4.27,2.2-5.77,4.05a10.85,10.85,0,0,0-1.78,3.14c-.13.37-.23.74-.34,1.11s-.2.53.12.65S52.29,22.63,52.06,22.55Z"/><path class="cls-3" d="M33.57,89.79a41.53,41.53,0,0,1-1.18-4.51A84.65,84.65,0,0,1,30.67,73a93.66,93.66,0,0,1,5.84-39.76A98.25,98.25,0,0,1,49.6,9.53c.37-.5.75-1,1.12-1.48l.6-.77c.16-.2.41-.67.64-.78h-.19c-.15-.07,0-.11-.07,0a.35.35,0,0,0-.05.13,2.44,2.44,0,0,0-.1.24l-.27.69c-.26.66-.52,1.33-.77,2C49.71,11.7,49,13.92,48.1,16a14.33,14.33,0,0,1-2.84,4.4,16.88,16.88,0,0,1-2.74,2.1,7.39,7.39,0,0,0-2.38,2.24c-.13.2.19.39.32.18a8.56,8.56,0,0,1,2.77-2.44,12.91,12.91,0,0,0,3.36-3.06,27,27,0,0,0,3.3-7.12c.65-1.81,1.32-3.61,2-5.39.06-.16.24-.45.18-.62-.2-.52-.71.28-.82.41q-1.45,1.84-2.84,3.75-2.7,3.73-5.06,7.69a97,97,0,0,0-7.23,15A93.58,93.58,0,0,0,32,47.54a94.08,94.08,0,0,0-1.76,24.3,89.22,89.22,0,0,0,1,8.93c.32,2.08.72,4.15,1.22,6.19.23.93.46,1.89.78,2.81a.56.56,0,0,0,0,.12c.07.22.44.13.36-.1Z"/><path class="cls-2" d="M38.07,28.39c2.42-5.48,2.19-13.9,1.27-16.69a.09.09,0,0,0-.17,0,17.74,17.74,0,0,0-1.1,6.68c.26,3.17,1.58,4.11,1.21,6.19"/><path class="cls-3" d="M38.24,28.48a23.38,23.38,0,0,0,1.68-6.65,34.38,34.38,0,0,0,.18-6.65,23.74,23.74,0,0,0-.32-2.5c-.05-.22-.29-1.71-.76-1.09a3.06,3.06,0,0,0-.31.91c-.16.5-.29,1-.41,1.52a15.27,15.27,0,0,0-.45,3.81,12,12,0,0,0,.76,3.76,5.81,5.81,0,0,1,.49,2.93c0,.24.32.34.36.1.28-1.7-.63-3.17-1-4.79A14.2,14.2,0,0,1,39,12.75l.18-.55c0-.07.16-.34.13-.4h-.16a.93.93,0,0,1,0,.13.65.65,0,0,0,0,.13c0,.17.09.34.13.51a20.52,20.52,0,0,1,.32,2.32A34.64,34.64,0,0,1,39.64,21a24,24,0,0,1-1.73,7.28c-.09.22.23.41.33.19Z"/><path class="cls-2" d="M32.66,44.27c2.23-8.7,4.26-29.79-.92-43.92a.29.29,0,0,0-.56.08c-.13,2.06-.52,6.64-1.62,14.46C28,26.15,34.29,33.07,34.19,35.71"/><path class="cls-3" d="M32.84,44.32A81.66,81.66,0,0,0,35,29.48a92,92,0,0,0-.63-19.27A50.66,50.66,0,0,0,32.2,1.1C32.07.72,31.94-.17,31.34,0,31,.1,31,.53,31,.85c-.06.83-.13,1.65-.21,2.48-.27,2.92-.62,5.84-1,8.75a56.43,56.43,0,0,0-.63,5.65,25,25,0,0,0,.32,4.81,30.88,30.88,0,0,0,2.33,7.57c.42.95.87,1.88,1.3,2.82a12.79,12.79,0,0,1,.82,2,2.64,2.64,0,0,1,.1.74c0,.24.37.24.37,0A4.1,4.1,0,0,0,34,34.13c-.29-.76-.65-1.5-1-2.23a41.76,41.76,0,0,1-2.54-6.47,25.61,25.61,0,0,1-.87-9.26c.17-1.85.49-3.69.72-5.53.19-1.5.37-3,.54-4.51.12-1.1.23-2.21.33-3.32,0-.43.07-.86.1-1.28,0-.17,0-.34,0-.51a1.83,1.83,0,0,1,0-.47c.2-.33.42.48.48.65.12.35.24.71.35,1.06q.33,1.07.6,2.13c.38,1.47.69,3,1,4.46a87.08,87.08,0,0,1,.94,18.81A89.67,89.67,0,0,1,32.8,42.9c-.1.44-.21.88-.32,1.32a.19.19,0,0,0,.36.1Z"/><path class="cls-2" d="M31.34,51c1-8.61-3.66-23.19-13-31.65,0,0-.07,0-.05,0,.83,1,3.28,4.43,4.75,11,1.78,7.94,6.68,8.11,8,13.7"/><path class="cls-3" d="M31.53,51a31.66,31.66,0,0,0-1.41-12.33,45.83,45.83,0,0,0-6.45-13.49,37.42,37.42,0,0,0-2.6-3.28c-.47-.53-.95-1.05-1.45-1.55l-.79-.76c-.15-.14-.35-.43-.57-.42a.19.19,0,0,0-.19.18c0,.17.19.34.28.46s.29.4.43.61a19.43,19.43,0,0,1,1.09,1.79,30.91,30.91,0,0,1,2.49,6.35c.36,1.31.6,2.64,1.06,3.93a14.79,14.79,0,0,0,1.35,2.84A26.16,26.16,0,0,0,28,39.17,11.08,11.08,0,0,1,30.86,44a.19.19,0,0,0,.36-.1,10.54,10.54,0,0,0-2.31-4.32c-1.09-1.27-2.32-2.4-3.3-3.76a13.61,13.61,0,0,1-1.46-2.57A23.31,23.31,0,0,1,23,29.47a33.43,33.43,0,0,0-2.4-6.72,23.71,23.71,0,0,0-1.28-2.25c-.17-.26-.34-.51-.52-.76l-.23-.3-.09-.11c-.08-.09,0-.11,0,0l-.18.19c.08,0,.46.46.55.55l.69.67q.64.66,1.26,1.35A36.47,36.47,0,0,1,23.1,25a43.66,43.66,0,0,1,3.78,6.34A43.49,43.49,0,0,1,31,44.57,25.72,25.72,0,0,1,31.15,51c0,.24.35.24.38,0Z"/><path class="cls-3" d="M30.53,62.36a20.23,20.23,0,0,0-1.43-6.31,40.44,40.44,0,0,0-3.63-7.12A57.42,57.42,0,0,0,13,35,49.26,49.26,0,0,0,5,29.7a39.73,39.73,0,0,0-4.2-1.91c-.19-.08-.56-.31-.76-.13S0,28,.12,28.1a10.71,10.71,0,0,0,.92.71,36.21,36.21,0,0,1,6.29,7,24.35,24.35,0,0,0,5.72,5.23c2.46,1.76,5,3.36,7.49,5.12a24.31,24.31,0,0,1,6.07,5.59,9.6,9.6,0,0,1,.86,1.49c.1.21.43,0,.33-.19A15.51,15.51,0,0,0,23.54,48a71.5,71.5,0,0,0-6.35-4.58,69.77,69.77,0,0,1-6.44-4.61,19.93,19.93,0,0,1-2.47-2.39c-1-1.16-1.81-2.46-2.79-3.63A32.17,32.17,0,0,0,2.4,29.5c-.39-.36-.79-.71-1.21-1.05C1,28.27.46,28,.34,27.77V28s2.13.91,2.33,1c.78.35,1.54.73,2.3,1.13A46.16,46.16,0,0,1,9.28,32.7a54.39,54.39,0,0,1,8,6.62,51.33,51.33,0,0,1,10.86,15.3,21.84,21.84,0,0,1,2.05,7.74c0,.24.38.25.37,0Z"/><path class="cls-3" d="M28.79,55.76C26.52,49.62,24.72,39.19,24.57,38a0,0,0,0,1,.06,0,8,8,0,0,1,2.53,6.49,26.35,26.35,0,0,0,.18,6.62"/><path class="cls-3" d="M29,55.71a68,68,0,0,1-2.35-8.25q-.87-3.7-1.53-7.44c-.08-.43-.15-.85-.22-1.27,0-.15-.05-.29-.07-.44s0-.28-.05-.22l-.21.08s.08.09.12.14a3.07,3.07,0,0,1,.25.26,8.6,8.6,0,0,1,.67.8,7.7,7.7,0,0,1,1.23,2.7,17.75,17.75,0,0,1,.07,4.37,27,27,0,0,0,.1,3.37,12.45,12.45,0,0,0,.17,1.35c.05.23.42.13.37-.1a21.2,21.2,0,0,1-.26-4.77A16.86,16.86,0,0,0,27.17,42a7.85,7.85,0,0,0-1.27-2.79,8.64,8.64,0,0,0-.72-.88c-.14-.14-.34-.44-.54-.49a.18.18,0,0,0-.21.09c-.1.16,0,.42,0,.6s.1.65.16,1c.18,1,.37,2.07.58,3.1.56,2.88,1.2,5.75,2,8.59.42,1.57.88,3.12,1.44,4.65.09.22.45.12.37-.1Z"/><path class="cls-2" d="M30.25,66.17c-.09-5.48-9.72-13.25-11.93-15.11,0,0,0,0,0,0a59,59,0,0,1,4.92,6.75c2.15,3.56,5.36,3.81,6.54,6.09"/><path class="cls-3" d="M30.44,66.17c-.07-2.66-1.87-5.11-3.49-7.08a52.4,52.4,0,0,0-6.32-6.32l-1.35-1.15-.53-.44c-.12-.1-.29-.31-.45-.31a.2.2,0,0,0-.19.19c0,.19.32.46.43.6.3.36.59.72.88,1.09.91,1.14,1.77,2.32,2.58,3.52a21.49,21.49,0,0,0,2.49,3.47,15.74,15.74,0,0,0,2.69,2A6.49,6.49,0,0,1,29.6,64c.11.21.44,0,.32-.19-.94-1.76-3-2.51-4.49-3.73a13.84,13.84,0,0,1-2.64-3.3c-.8-1.24-1.66-2.44-2.55-3.6-.36-.47-.73-.93-1.1-1.39-.13-.17-.27-.33-.41-.5s-.1-.13-.16-.19-.08-.18-.09,0l-.18.18c-.13,0,0,0,.07.1l.16.14.48.4c.39.32.77.65,1.15,1,1,.85,1.95,1.72,2.89,2.62a32.18,32.18,0,0,1,5.7,6.79,8.44,8.44,0,0,1,1.32,3.9c0,.24.38.24.37,0Z"/><path class="cls-2" d="M30.78,76.43C30.37,71.2,23.85,63,19.52,60.75a.05.05,0,0,0-.06.08A26.51,26.51,0,0,1,23,66.75c2.33,4.79,6.46,5.58,7.09,6.83"/><path class="cls-3" d="M31,76.43A16.57,16.57,0,0,0,28,69.15a30.53,30.53,0,0,0-5.73-6.69c-.44-.38-.91-.75-1.39-1.09l-.69-.45c-.17-.11-.48-.36-.69-.36-.38,0-.23.35-.08.53s.39.49.57.75A27,27,0,0,1,22,65.12a22,22,0,0,0,2.61,4.35,14.06,14.06,0,0,0,3.28,2.67c.43.27.88.53,1.31.81a2.22,2.22,0,0,1,.77.72c.12.21.44,0,.33-.19a3.75,3.75,0,0,0-1.47-1.2,20.16,20.16,0,0,1-2.66-1.82,11.46,11.46,0,0,1-2.76-3.39c-.74-1.39-1.4-2.82-2.22-4.17a15.56,15.56,0,0,0-1.36-2s-.14-.22-.18-.22l-.1.23.07,0a.61.61,0,0,0,.16.09l.4.23a14.9,14.9,0,0,1,1.37,1,29.13,29.13,0,0,1,5.61,6.17c1.61,2.33,3.23,5.08,3.47,8,0,.24.4.24.38,0Z"/><path class="cls-3" d="M28.35,54.55C24,44.51,13,32.4.34,27.72a.09.09,0,0,0-.08.16,31.89,31.89,0,0,1,7.22,7.71c4.33,6.15,17.12,10.82,20.2,17.51Z"/><path class="cls-3" d="M28.52,54.46a50.59,50.59,0,0,0-9.38-13.83A52.85,52.85,0,0,0,4.62,29.41,29.81,29.81,0,0,0,.53,27.59c-.37-.12-.67.16-.35.47s.54.39.79.59a32.53,32.53,0,0,1,5.39,5.73,32.64,32.64,0,0,0,2.36,3,26.15,26.15,0,0,0,2.68,2.36c2,1.6,4.23,3,6.39,4.47a53.72,53.72,0,0,1,6.32,4.71,14.9,14.9,0,0,1,3.65,4.8l.43.94c.1.22.43,0,.33-.19-.34-.72-.64-1.46-1-2.14a13.88,13.88,0,0,0-2.13-2.74,41.32,41.32,0,0,0-6.42-5.06c-2.37-1.61-4.8-3.15-7.08-4.9A26.83,26.83,0,0,1,8.92,37c-1-1.09-1.85-2.37-2.78-3.55a34.54,34.54,0,0,0-3.5-3.86c-.43-.4-.86-.79-1.32-1.16l-.51-.4c-.12-.1-.36-.22-.43-.35v.19s1.69.72,1.81.77c.6.26,1.2.54,1.79.83,1.18.59,2.34,1.23,3.47,1.93A50.7,50.7,0,0,1,14,36.23,57.48,57.48,0,0,1,24.43,47.89a43.32,43.32,0,0,1,3.76,6.76C28.29,54.87,28.61,54.68,28.52,54.46Z"/><path class="cls-2" d="M30.86,55.21C31.86,47,42.11,32.84,49,27.26a.16.16,0,0,1,.24.21A85.94,85.94,0,0,0,43.9,38.14C41.17,44.71,33.63,48,32.36,50.59"/><path class="cls-3" d="M31.05,55.21c.48-3.84,2.39-7.52,4.3-10.83a73.89,73.89,0,0,1,8-11.23,55.24,55.24,0,0,1,4.16-4.36c.33-.3.66-.6,1-.89l.45-.38c.17-.16,0,.08-.1.18-.43.73-.85,1.47-1.25,2.22-1.24,2.29-2.39,4.64-3.42,7a22.94,22.94,0,0,1-1.62,3.3,18.7,18.7,0,0,1-2.1,2.67,40.5,40.5,0,0,1-4.51,4,19.37,19.37,0,0,0-3.36,3,3.87,3.87,0,0,0-.41.64c-.11.21.21.41.32.19a10.15,10.15,0,0,1,3-3,51.27,51.27,0,0,0,4.69-4,17.51,17.51,0,0,0,3.83-5.47c1.12-2.64,2.33-5.24,3.69-7.76.43-.81.88-1.61,1.33-2.4.13-.22.44-.57.32-.84s-.51-.14-.72,0a43.42,43.42,0,0,0-4.25,4.11A74.36,74.36,0,0,0,36,42.65C33.79,46.14,31.7,50,30.87,54c-.08.39-.15.79-.2,1.18s.35.24.38,0Z"/><path class="cls-3" d="M30.56,69.78a25.7,25.7,0,0,1,1.88-7.41,43.33,43.33,0,0,1,15.63-19.7.21.21,0,0,1,.31.24A33.41,33.41,0,0,1,42.3,53.75c-4.31,4.83-7,5.07-9.17,8.23A17.08,17.08,0,0,0,30.56,69.78Z"/><path class="cls-3" d="M30.74,69.78a25.46,25.46,0,0,1,1.92-7.47,43.73,43.73,0,0,1,2.82-5.75,43.18,43.18,0,0,1,9.36-11.23c.5-.42,1-.83,1.54-1.23l.75-.55.39-.27c.12-.09.36-.33.52-.36s.1.12,0,.28-.09.27-.14.4q-.19.54-.42,1.08a34.18,34.18,0,0,1-3,5.74,26.74,26.74,0,0,1-5.24,6c-1.4,1.19-3,2.15-4.37,3.32a12.27,12.27,0,0,0-3.65,5.51,16.84,16.84,0,0,0-.94,4.54c0,.24.36.24.37,0a16.61,16.61,0,0,1,.85-4.18,11.92,11.92,0,0,1,3.49-5.49c1.42-1.21,3-2.18,4.46-3.39a27.35,27.35,0,0,0,5.32-6,36.16,36.16,0,0,0,3-5.94c.14-.36.28-.72.41-1.07a2.47,2.47,0,0,0,.26-.81c0-.39-.37-.46-.66-.3a14.61,14.61,0,0,0-1.66,1.17A42.4,42.4,0,0,0,36.09,54.85a36.62,36.62,0,0,0-5.54,13.37c-.08.52-.15,1-.18,1.56C30.35,70,30.73,70,30.74,69.78Z"/><path class="cls-3" d="M31.31,80.5C30.9,75,34.85,64.94,35.55,63.2c0,0,.06,0,.06,0a14.57,14.57,0,0,0,.72,5.54c1.11,4-4.25,5.32-5,11.75"/><path class="cls-3" d="M31.5,80.5a24.63,24.63,0,0,1,1.07-7.76c.64-2.47,1.43-4.9,2.31-7.29l.5-1.32.2-.5a1.8,1.8,0,0,1,.08-.21c0-.11.09-.12,0-.08l-.26-.07s0,.3,0,.38,0,.44,0,.65a15.89,15.89,0,0,0,.19,2c.15.91.39,1.79.61,2.69a3.45,3.45,0,0,1,0,1.5,6.56,6.56,0,0,1-1.44,2.62,29.68,29.68,0,0,0-2.07,2.83,11.52,11.52,0,0,0-1.59,4.61c0,.24.34.24.37,0A11.22,11.22,0,0,1,33,76.08a34.43,34.43,0,0,1,2.15-2.93,6.57,6.57,0,0,0,1.38-2.54c.3-1.3-.28-2.57-.53-3.84a14.61,14.61,0,0,1-.29-2.47c0-.23,0-.47,0-.71s.08-.37,0-.51a.2.2,0,0,0-.26-.06c-.19.1-.27.49-.34.68-.15.37-.29.73-.42,1.1-.4,1.07-.79,2.15-1.15,3.23a56.25,56.25,0,0,0-2.16,8.25,18.1,18.1,0,0,0-.29,4.22c0,.24.39.24.37,0Z"/><path class="cls-2" d="M12.71,53.46c0,.06-.05.13-.11.09a16.29,16.29,0,0,1-6.53-6.17,13.65,13.65,0,0,0-3.73-4.61.08.08,0,0,1,.08-.14C4.65,43.47,10.94,46.43,12.71,53.46Z"/><path class="cls-3" d="M12.53,53.41c0-.12.16.06.06-.07s-.1-.05-.13-.07l-.33-.18c-.31-.18-.61-.37-.91-.57a16.76,16.76,0,0,1-2.34-1.86,14.43,14.43,0,0,1-2.42-3,27.64,27.64,0,0,0-2.12-3.23,11.86,11.86,0,0,0-1.08-1.16,5,5,0,0,0-.42-.37c-.11-.09-.31-.19-.37-.31v.19c0,.08,0,0,.06.07a1,1,0,0,0,.18.07l.42.18q.46.2.9.42a20.63,20.63,0,0,1,2.18,1.27,16.1,16.1,0,0,1,4.59,4.64,14.36,14.36,0,0,1,1.73,4,.19.19,0,0,0,.37-.09A16.07,16.07,0,0,0,4.36,43.29a9.71,9.71,0,0,0-1.8-.81c-.3-.08-.59.15-.33.44s.62.49.9.76a15.28,15.28,0,0,1,2.46,3.25,18.71,18.71,0,0,0,2.6,3.58,17.14,17.14,0,0,0,3,2.41c.21.15,1.66,1.23,1.75.58C12.93,53.27,12.57,53.17,12.53,53.41Z"/><text class="cls-4" transform="translate(56.65 50.56)">Parfum</text><text/></svg>